<?xml version="1.0" standalone="no"?>
<!DOCTYPE svg PUBLIC "-//W3C//DTD SVG 1.0//EN" "http://www.w3.org/TR/2001/REC-SVG-20010904/DTD/svg10.dtd">
<svg xmlns="http://www.w3.org/2000/svg" xmlns:xlink="http://www.w3.org/1999/xlink" id="body_1" width="479" height="110">

<g transform="matrix(0.7484376 0 0 0.7482993 0 0)">
    <path transform="matrix(1.333333 0 0 2.261539 0 -52.0154)"  d="M286.837 24.841C 267.514 28.629 259.106 51.918 271.548 67.341C 273.474 69.72701 275.778 71.8 277.899 74.027C 278.0966 74.25317 278.2786 74.49237 278.444 74.743L278.444 74.743L285.8 67.3C 284.149 65.634 282.411 63.906 280.7 62.15C 275.3985 56.88629 274.4496 48.65261 278.4148 42.32096C 282.3801 35.98933 290.2019 33.24838 297.252 35.72C 301.9694 37.50272 305.5772 41.39511 306.9974 46.23395C 308.4176 51.07278 307.4856 56.29761 304.48 60.347C 302.9489 62.23019 301.2774 63.99492 299.48 65.626C 294.68 70.47266 289.8833 75.32 285.09 80.168C 284.9188 80.31938 284.7355 80.4565 284.542 80.578L284.542 80.578L291.866 87.985C 291.936 87.921 292.037 87.835 292.13 87.741C 298.23 81.578 304.39 75.481 310.401 69.233C 316.3972 63.24752 319.0591 54.69182 317.517 46.361C 316.42 39.37968 312.5325 33.14411 306.7469 29.0859C 300.9613 25.02769 293.7747 23.49546 286.837 24.841zM382.937 25.963C 379.1412 24.87289 375.2092 24.33008 371.26 24.351C 366.784 24.281 362.308 24.322 357.832 24.318C 357.642 24.318 357.452 24.344 357.256 24.359L357.256 24.359L357.256 77.049C 357.45 77.066 357.579 77.08801 357.707 77.08801C 363.158 77.067 368.607 77.08801 374.059 77.00201C 376.9435 77.0309 379.8204 76.70206 382.624 76.02301C 387.7053 74.61111 392.0221 71.24721 394.633 66.66501C 397.0643 62.6179 398.4174 58.01503 398.563 53.29601C 398.873 46.79601 397.74 40.63201 394.216 35.06201C 391.7017 30.74449 387.6844 27.50506 382.932 25.963zM387.176 59.106C 386.7244 60.22281 386.1438 61.283 385.446 62.265C 383.9396 64.53587 381.5909 66.11341 378.919 66.649C 375.047 67.485 371.124 67.266 367.129 67.306L367.129 67.306L367.129 34.112C 367.1614 34.07601 367.2014 34.04766 367.246 34.029C 370.6762 33.83862 374.1167 34.08967 377.483 34.776C 382.3443 35.78111 386.2284 39.43282 387.531 44.223C 389.1067 49.08062 388.9797 54.33023 387.171 59.106zM248.353 44.183L230.941 44.183L230.941 24.37L220.928 24.37L220.928 77.042L230.988 77.042L230.988 53.989L248.388 53.989L248.388 77.044L258.411 77.044L258.411 24.364L248.353 24.364L248.353 44.183zM467.687 53.7C 467.7234 53.6584 467.7636 53.62024 467.807 53.586C 468.113 53.459 468.423 53.339 468.727 53.209C 472.433 51.622 475.327 49.176 476.66 45.218C 477.8969 41.65125 477.9187 37.77545 476.722 34.195C 475.122 29.328 471.902 26.075 466.811 25.13C 464.2836 24.68171 461.7261 24.42466 459.16 24.36101C 455.175 24.23301 451.184 24.31701 447.196 24.314C 447.0031 24.314 446.8101 24.336 446.605 24.34801L446.605 24.34801L446.605 77.057L456.505 77.057L456.505 54.828C 456.7344 54.70328 457.0083 54.69059 457.2482 54.79357C 457.4881 54.89655 457.6675 55.10382 457.735 55.356C 461.41 62.4 465.117 69.427 468.8 76.47C 468.9537 76.88667 469.3689 77.14745 469.811 77.105C 472.957 77.078 476.104 77.092 479.25 77.09C 479.462 77.09 479.673 77.07201 479.995 77.05701zM464.209 44.458C 462.5707 44.71007 460.9188 44.86401 459.262 44.919C 458.362 44.979 457.462 44.93 456.521 44.93L456.521 44.93L456.521 34.209C 458.387 34.209 460.221 34.191 462.05 34.219C 462.6479 34.23989 463.2427 34.31487 463.827 34.443C 465.1831 34.7075 466.375 35.50809 467.1327 36.66338C 467.8904 37.81867 468.1497 39.23086 467.852 40.58C 467.7453 42.58861 466.2068 44.22808 464.209 44.462zM98.915 24.88C 98.82128 24.49098 98.44263 24.24073 98.048 24.307C 95.123 24.324 92.19701 24.333 89.272 24.3C 88.83037 24.24117 88.41962 24.53738 88.33601 24.975C 81.82133 42.09233 75.297 59.206 68.763 76.316C 68.678 76.539 68.607 76.767 68.497 77.091L68.497 77.091L69.246 77.091C 72.216 77.091 75.18501 77.078 78.155 77.104C 78.57747 77.16002 78.97295 76.88466 79.067 76.469C 80.297 73.257 81.567 70.061 82.795 66.847C 82.89627 66.43423 83.29583 66.16699 83.716 66.231C 90.36466 66.24767 97.013 66.24767 103.661 66.231C 104.1046 66.16782 104.5209 66.46027 104.612 66.899C 105.79 70.107 107.012 73.299 108.191 76.506C 108.2753 76.90236 108.6531 77.16499 109.054 77.106C 112.068 77.08601 115.082 77.096 118.096 77.094C 118.286 77.094 118.477 77.07 118.718 77.053C 118.638 76.806 118.584 76.616 118.518 76.432C 111.9793 59.248 105.445 42.064 98.915 24.88zM86.728 56.38L93.628 38.529L93.784 38.529L100.644 56.382L86.729 56.382zM155.628 33.142C 159.8699 34.14848 163.727 36.36854 166.728 39.531C 166.9668 39.79972 167.1892 40.08257 167.394 40.378L167.394 40.378L174.411 33.613C 174.34 33.504 174.311 33.445 174.268 33.395C 165.8635 23.51252 151.9906 20.27784 140.082 25.424C 133.436 28.16263 128.2159 33.52417 125.656 40.241C 123.9166 44.97311 123.3953 50.06666 124.14 55.053C 125.5615 67.76658 135.9522 77.59724 148.725 78.313C 153.264 78.74687 157.843 78.18584 162.143 76.66901C 166.82 74.92601 170.594 71.843 174.111 68.38501C 174.1341 68.33332 174.147 68.27762 174.149 68.22101L174.149 68.22101L167.526 61.23601C 167.4816 61.2484 167.4387 61.2655 167.398 61.28701C 166.9313 61.72968 166.4623 62.17334 165.991 62.61801C 162.051 66.37301 157.54 68.76601 151.975 68.76601C 147.051 68.92867 142.2759 67.06417 138.765 63.60801C 133.2919 58.208 132.711 49.326 135.1649 43.48C 138.5431 35.49429 147.1998 31.12172 155.632 33.142zM408.148 77.027L436.582 77.027L436.582 67.205L418.043 67.205L418.043 53.336L436.59 53.336L436.59 43.663L418.042 43.663L418.042 34.127L436.6 34.127L436.6 24.357L408.148 24.357L408.148 77.027zM193.069 34.138L211.615 34.138L211.615 24.338L183.208 24.338L183.208 77.05L211.608 77.05L211.608 67.2L193.076 67.2L193.076 53.335L211.62 53.335L211.62 43.668L193.069 43.668L193.069 34.138zM20.692 25.238C 17.97072 24.61122 15.18433 24.31144 12.392 24.345C 8.444 24.3 4.5 24.321 0.557 24.316L0.557 24.316L0.009 24.316L0.009 77.029L9.939 77.029L9.939 54.734C 10.239 54.734 10.46 54.746 10.679 54.734C 13.53282 54.69825 16.38203 54.49491 19.212 54.125C 24.14227 53.4243 28.28885 50.0714 30.006 45.397C 31.11335 42.41456 31.33559 39.17574 30.646 36.07C 29.529 30.432 26.321 26.661 20.692 25.234zM21.352 39.865C 21.42013 42.431 19.4231 44.58004 16.859 44.7C 14.587 44.964 12.281 44.925 9.925999 45.023L9.925999 45.023L9.925999 34.242C 9.95992 34.20311 10.00189 34.17206 10.049 34.151C 12.43474 33.99513 14.83048 34.11424 17.189 34.506C 19.79822 34.86847 21.64417 37.24297 21.352 39.861zM50.6 24.37L40.728 24.37L40.728 77.047L65.088 77.047L65.088 67.5L50.6 67.5L50.6 24.37zM335.137 24.362L325.244 24.362L325.244 77.042L349.587 77.042L349.587 67.5L335.137 67.5L335.137 24.361zM298.505 50.985C 298.5105 48.58382 297.2346 46.36208 295.1579 45.1567C 293.0812 43.95132 290.5192 43.94541 288.4369 45.1412C 286.3547 46.337 285.0685 48.55282 285.063 50.954C 285.0157 53.38257 286.2823 55.64774 288.3761 56.8791C 290.4699 58.11046 293.0651 58.11644 295.1646 56.89475C 297.264 55.67306 298.541 53.41376 298.505 50.985z" stroke="none" fill="#FFFFFF" fill-rule="nonzero" />
</g>
</svg>